<svg width="262" height="148" viewBox="0 0 262 148" fill="none" xmlns="http://www.w3.org/2000/svg">
<g opacity="0.2">
<circle cx="34" cy="37" r="3.8" stroke="#6ECB66" stroke-width="2.4"/>
<path d="M20.6942 68.52L30.5795 73.1847L21.0478 79.6113L20.6942 68.52Z" stroke="#6ECB66" stroke-width="2.4"/>
<rect x="6" y="48" width="2" height="10" fill="#6ECB66"/>
<rect x="2" y="54" width="2" height="10" transform="rotate(-90 2 54)" fill="#6ECB66"/>
<circle cx="233" cy="90" r="3.8" stroke="#6ECB66" stroke-width="2.4"/>
<path d="M236.316 125.309L231.899 135.308L225.237 125.939L236.316 125.309Z" stroke="#6ECB66" stroke-width="2.4"/>
<rect x="254.801" y="108.964" width="2" height="10" transform="rotate(20.3472 254.801 108.964)" fill="#6ECB66"/>
<rect x="248.964" y="113.199" width="2" height="10" transform="rotate(-69.6528 248.964 113.199)" fill="#6ECB66"/>
</g>
<g clip-path="url(#clip0_6618_129491)">
<path d="M188.773 74C188.773 85.4485 185.375 96.5819 178.946 106.198C178.073 107.505 176.637 108.211 175.175 108.211C174.31 108.211 173.434 107.964 172.661 107.446C170.58 106.056 170.022 103.242 171.412 101.161C176.842 93.041 179.711 83.6493 179.711 74C179.711 69.8537 179.192 65.7358 178.169 61.7621C177.545 59.3389 179.005 56.868 181.428 56.2441C183.853 55.621 186.322 57.0795 186.946 59.5027C188.158 64.2145 188.773 69.0918 188.773 74ZM156.088 115.89C148.477 120.5 139.724 122.938 130.773 122.938C103.79 122.938 81.8359 100.984 81.8359 74C81.8359 47.0161 103.79 25.0625 130.773 25.0625C140.764 25.0625 150.371 28.0521 158.557 33.7082C160.615 35.1304 163.437 34.6144 164.861 32.5559C166.283 30.4973 165.768 27.6751 163.708 26.252C154.001 19.5454 142.613 16 130.773 16C115.281 16 100.716 22.0331 89.7612 32.9878C78.8066 43.9424 72.7734 58.5079 72.7734 74C72.7734 89.4921 78.8066 104.058 89.7612 115.012C100.716 125.967 115.281 132 130.773 132C141.379 132 151.757 129.11 160.784 123.641C162.925 122.345 163.609 119.559 162.313 117.418C161.015 115.277 158.229 114.594 156.088 115.89ZM131.211 87.1389C130.493 87.1672 129.823 86.9123 129.303 86.4167L105.571 63.9153C103.755 62.1931 100.887 62.2692 99.1653 64.0853C97.4431 65.9013 97.5192 68.7696 99.3352 70.491L123.062 92.9888C125.254 95.0721 128.088 96.2032 131.092 96.2032C131.253 96.2032 131.414 96.1996 131.575 96.1934C134.757 96.0651 137.679 94.688 139.803 92.3153C139.857 92.256 139.909 92.1949 139.959 92.1321L187.773 32.6594C189.342 30.7089 189.032 27.8565 187.081 26.2891C185.132 24.7209 182.278 25.0306 180.71 26.9812L132.99 86.3379C132.52 86.8274 131.892 87.1114 131.211 87.1389Z" fill="#6ECB66"/>
</g>
<defs>
<clipPath id="clip0_6618_129491">
<rect width="116" height="116" fill="white" transform="translate(73 16)"/>
</clipPath>
</defs>
</svg>
