<svg width="262" height="148" viewBox="0 0 262 148" fill="none" xmlns="http://www.w3.org/2000/svg">
<g opacity="0.2">
<circle cx="34" cy="37" r="3.8" stroke="#F16063" stroke-width="2.4"/>
<path d="M20.6942 68.52L30.5795 73.1847L21.0478 79.6113L20.6942 68.52Z" stroke="#F16063" stroke-width="2.4"/>
<rect x="6" y="48" width="2" height="10" fill="#F16063"/>
<rect x="2" y="54" width="2" height="10" transform="rotate(-90 2 54)" fill="#F16063"/>
<circle cx="233" cy="90" r="3.8" stroke="#F16063" stroke-width="2.4"/>
<path d="M236.316 125.309L231.899 135.308L225.237 125.939L236.316 125.309Z" stroke="#F16063" stroke-width="2.4"/>
<rect x="254.801" y="108.964" width="2" height="10" transform="rotate(20.3472 254.801 108.964)" fill="#F16063"/>
<rect x="248.965" y="113.199" width="2" height="10" transform="rotate(-69.6528 248.965 113.199)" fill="#F16063"/>
</g>
<g clip-path="url(#clip0_6618_129553)">
<path d="M189.567 100.966C188.559 98.4417 185.696 97.2119 183.172 98.2197C180.647 99.2274 179.417 102.09 180.425 104.615C181.706 107.825 181.286 111.49 179.301 114.419C177.315 117.35 174.136 119.031 170.577 119.031H85.4426C81.5615 119.031 78.1149 117.006 76.2227 113.613C74.3276 110.215 74.4166 106.21 76.4609 102.9L119.028 33.9807C120.967 30.8425 124.324 28.969 128.01 28.969C131.696 28.969 135.053 30.8425 136.992 33.9807L168.474 84.9527C169.902 87.2653 172.935 87.9826 175.247 86.5536C177.559 85.1255 178.277 82.0929 176.848 79.7803L145.366 28.8083C141.621 22.7455 135.133 19.126 128.01 19.126C120.887 19.126 114.399 22.7458 110.654 28.8083L68.0866 97.728C64.1402 104.118 63.9685 111.849 67.6267 118.408C71.2819 124.962 77.9419 128.874 85.4426 128.874H170.577C177.453 128.874 183.603 125.617 187.45 119.94C191.268 114.305 192.059 107.212 189.567 100.966Z" fill="#F16063"/>
<path d="M128.012 109.434C130.731 109.434 132.934 107.231 132.934 104.513C132.934 101.795 130.731 99.5916 128.012 99.5916H128.01C125.292 99.5916 123.09 101.795 123.09 104.513C123.09 107.231 125.294 109.434 128.012 109.434Z" fill="#F16063"/>
<path d="M132.932 87.2879V51.1152C132.932 48.3971 130.728 46.1938 128.01 46.1938C125.292 46.1938 123.089 48.3971 123.089 51.1152V87.2879C123.089 90.006 125.292 92.2093 128.01 92.2093C130.728 92.2093 132.932 90.006 132.932 87.2879Z" fill="#F16063"/>
</g>
<defs>
<clipPath id="clip0_6618_129553">
<rect width="126" height="126" fill="white" transform="translate(65 11)"/>
</clipPath>
</defs>
</svg>
