<svg width="262" height="148" viewBox="0 0 262 148" fill="none" xmlns="http://www.w3.org/2000/svg">
<circle cx="34" cy="37" r="3.8" stroke="#EBF7FF" stroke-width="2.4"/>
<path d="M20.6942 68.5198L30.5795 73.1845L21.0478 79.6111L20.6942 68.5198Z" stroke="#EBF7FF" stroke-width="2.4"/>
<rect x="6" y="48" width="2" height="10" fill="#EBF7FF"/>
<rect x="2" y="54" width="2" height="10" transform="rotate(-90 2 54)" fill="#EBF7FF"/>
<circle cx="233" cy="90" r="3.8" stroke="#EBF7FF" stroke-width="2.4"/>
<path d="M236.316 125.309L231.899 135.307L225.237 125.939L236.316 125.309Z" stroke="#EBF7FF" stroke-width="2.4"/>
<rect x="254.801" y="108.964" width="2" height="10" transform="rotate(20.3472 254.801 108.964)" fill="#EBF7FF"/>
<rect x="248.964" y="113.199" width="2" height="10" transform="rotate(-69.6528 248.964 113.199)" fill="#EBF7FF"/>
<g clip-path="url(#clip0_6618_129291)">
<path d="M193.998 64.2704C193.998 63.7679 193.847 63.2607 193.529 62.8231C193.419 62.6718 193.293 62.5381 193.158 62.4198C193.159 62.4195 193.159 62.4193 193.16 62.4188L184.667 54.986C186.497 53.5124 187.67 51.2557 187.67 48.7288V44.6904C187.67 33.8347 178.839 25.0029 167.983 25.0029C157.127 25.0029 148.295 33.8347 148.295 44.6904C148.295 55.5461 157.127 64.3779 167.983 64.3779C169.342 64.3779 170.444 63.2762 170.444 61.917C170.444 60.5578 169.342 59.4561 167.983 59.4561C159.841 59.4561 153.217 52.8322 153.217 44.6904C153.217 36.5487 159.841 29.9248 167.983 29.9248C176.125 29.9248 182.749 36.5487 182.749 44.6904V48.7288C182.749 50.4441 181.353 51.8395 179.638 51.8395C177.922 51.8395 176.527 50.4441 176.527 48.7288V45.3283V38.2531C176.527 37.5764 176.249 36.9296 175.757 36.4647C173.646 34.4692 170.885 33.3701 167.983 33.3701C161.741 33.3701 156.663 38.4485 156.663 44.6904C156.663 50.9324 161.741 56.0107 167.983 56.0107C170.095 56.0107 172.131 55.426 173.897 54.3398C175.31 55.7843 177.26 56.6983 179.422 56.7559C179.554 56.9868 179.724 57.2009 179.935 57.3859L187.6 64.0934L167.914 78.4149V71.9992C167.914 70.64 166.812 69.5383 165.453 69.5383C164.094 69.5383 162.992 70.64 162.992 71.9992V81.9955L144.62 95.3611L132.448 86.5057C131.585 85.8777 130.415 85.8777 129.552 86.5057L117.38 95.3611L74.5072 64.171L88.5107 51.9157C89.5334 51.0207 89.6368 49.4659 88.7418 48.4431C87.8465 47.4203 86.2919 47.317 85.2691 48.212L68.9076 62.3622C68.9066 62.3632 68.9056 62.3639 68.9046 62.3649C68.3527 62.8162 68 63.5021 68 64.2706V132.538C68 133.897 69.1018 134.999 70.4609 134.999H191.539C192.898 134.999 194 133.897 194 132.538V64.2706C193.999 64.2706 193.998 64.2704 193.998 64.2704ZM171.605 45.3285V48.7291V49.9632C170.545 50.6944 169.289 51.0889 167.983 51.0889C164.455 51.0889 161.585 48.2184 161.585 44.6904C161.585 41.1624 164.455 38.292 167.983 38.292C169.289 38.292 170.545 38.6865 171.605 39.4176V45.3285ZM72.9219 69.1042L113.197 98.4043L72.9219 127.704V69.1042ZM78.0268 130.077L131 91.5388L183.973 130.077H78.0268V130.077ZM189.078 127.704L148.803 98.4043L189.078 69.1042V127.704Z" fill="#1A97FD"/>
<path d="M151.019 25.5475L132.611 9.60067C131.676 8.79028 130.306 8.81292 129.396 9.59772C129.395 9.59698 129.395 9.59648 129.394 9.59575L120.535 17.2247C119.505 18.1116 119.389 19.6654 120.276 20.6953C120.763 21.2606 121.45 21.5505 122.142 21.5505C122.711 21.5505 123.282 21.3546 123.747 20.9544L130.996 14.7123L142.875 25.0034H96.5469C95.1877 25.0034 94.0859 26.1052 94.0859 27.4644V62.8942C94.0859 64.2534 95.1877 65.3552 96.5469 65.3552C97.9061 65.3552 99.0078 64.2534 99.0078 62.8942V29.9256H149.408C149.399 29.9051 149.393 29.8874 149.385 29.8675C149.392 29.8675 149.399 29.8685 149.406 29.8685C150.095 29.8685 150.781 29.5805 151.268 29.0189C152.157 27.9917 152.046 26.4374 151.019 25.5475Z" fill="#1A97FD"/>
<path d="M131.343 49.8506H106.739C105.38 49.8506 104.278 50.9523 104.278 52.3115C104.278 53.6707 105.38 54.7725 106.739 54.7725H131.343C132.702 54.7725 133.804 53.6707 133.804 52.3115C133.804 50.9523 132.702 49.8506 131.343 49.8506Z" fill="#1A97FD"/>
<path d="M131 37.5459H106.739C105.38 37.5459 104.278 38.6477 104.278 40.0068C104.278 41.366 105.38 42.4678 106.739 42.4678H131C132.359 42.4678 133.461 41.366 133.461 40.0068C133.461 38.6477 132.359 37.5459 131 37.5459Z" fill="#1A97FD"/>
<path d="M98.2868 71.0785C97.829 70.6207 97.1941 70.3574 96.5469 70.3574C95.8996 70.3574 95.2647 70.6207 94.807 71.0785C94.3493 71.5362 94.0859 72.1711 94.0859 72.8184C94.0859 73.468 94.3493 74.1005 94.807 74.5582C95.2647 75.0187 95.8996 75.2793 96.5469 75.2793C97.1941 75.2793 97.829 75.0184 98.2868 74.5582C98.7445 74.1005 99.0078 73.468 99.0078 72.8184C99.0078 72.1711 98.7445 71.5362 98.2868 71.0785Z" fill="#1A97FD"/>
<path d="M147.633 61.9814H142.813C141.453 61.9814 140.352 63.0832 140.352 64.4424C140.352 65.8016 141.453 66.9033 142.813 66.9033H147.633C148.992 66.9033 150.094 65.8016 150.094 64.4424C150.094 63.0832 148.992 61.9814 147.633 61.9814Z" fill="#1A97FD"/>
<path d="M131.938 61.9814H131.911C130.552 61.9814 129.45 63.0832 129.45 64.4424C129.45 65.8016 130.552 66.9033 131.911 66.9033H131.938C133.297 66.9033 134.399 65.8016 134.399 64.4424C134.399 63.0832 133.297 61.9814 131.938 61.9814Z" fill="#1A97FD"/>
<path d="M120.172 61.9814H106.727C105.368 61.9814 104.266 63.0832 104.266 64.4424C104.266 65.8016 105.368 66.9033 106.727 66.9033H120.172C121.531 66.9033 122.633 65.8016 122.633 64.4424C122.633 63.0832 121.531 61.9814 120.172 61.9814Z" fill="#1A97FD"/>
</g>
<defs>
<clipPath id="clip0_6618_129291">
<rect width="126" height="126" fill="white" transform="translate(68 9)"/>
</clipPath>
</defs>
</svg>
